<svg xmlns="http://www.w3.org/2000/svg" viewBox="0 0 85.01 85.01"><defs><style>.cls-1{fill:#f9ad1b;}</style></defs><title>Asset 4</title><g id="Layer_2" data-name="Layer 2"><g id="Layer_1-2" data-name="Layer 1"><path class="cls-1" d="M42.5,11a31.24,31.24,0,0,0-18.25,5.86A1.65,1.65,0,0,0,23.56,18,1.7,1.7,0,0,0,24,19.35L65.66,61a1.67,1.67,0,0,0,2.53-.21A31.5,31.5,0,0,0,42.5,11ZM66.57,57.18,27.82,18.43A28,28,0,0,1,42.5,14.28,28.25,28.25,0,0,1,70.73,42.5a27.86,27.86,0,0,1-4.16,14.68Z"/><path class="cls-1" d="M18,23.56a1.65,1.65,0,0,0-1.21.69A31.24,31.24,0,0,0,11,42.5a31.5,31.5,0,0,0,49.8,25.69A1.67,1.67,0,0,0,61,65.66L19.35,24A1.7,1.7,0,0,0,18,23.56ZM42.5,70.73A28.25,28.25,0,0,1,14.28,42.5a28,28,0,0,1,4.15-14.68L57.18,66.57A27.86,27.86,0,0,1,42.5,70.73Z"/><path class="cls-1" d="M73.05,71.39a1.66,1.66,0,1,1-1.66-1.66,1.66,1.66,0,0,1,1.66,1.66Z"/><path class="cls-1" d="M42.5,0A42.51,42.51,0,1,0,66.59,77.54a1.66,1.66,0,0,0-1.88-2.74A39.17,39.17,0,1,1,74.8,64.71a1.66,1.66,0,0,0,2.74,1.88A42.52,42.52,0,0,0,42.5,0Z"/></g></g></svg>