<svg xmlns="http://www.w3.org/2000/svg" viewBox="0 0 74.73 74.73"><defs><style>.cls-1{fill:#fbad18;}</style></defs><g id="Layer_2" data-name="Layer 2"><g id="Layer_1-2" data-name="Layer 1"><g id="ZiRYaN.tif"><path class="cls-1" d="M74.73,2V20.4a2,2,0,0,1-1.57.79c-6.43,0-12.86,0-19.29,0-1.1,0-1.55-.44-1.56-1.55,0-2.1,0-4.2,0-6.3v-.8H47.37V36.07h4.94V29.19c0-1.43.36-1.79,1.79-1.79,6.27,0,12.55,0,18.82,0a2,2,0,0,1,1.81.79V46.55a2,2,0,0,1-1.57.8c-6.43,0-12.86,0-19.29,0-1.1,0-1.55-.45-1.56-1.56,0-2.1,0-4.2,0-6.3v-.79H47.37V62.23h4.94V55.35c0-1.43.36-1.79,1.79-1.79,6.27,0,12.55,0,18.82,0a1.92,1.92,0,0,1,1.81.79V72.71a2,2,0,0,1-1.65.79c-6.38,0-12.76,0-19.13,0-1.21,0-1.63-.43-1.64-1.64v-7h-5v.79c0,2.44,0,4.88,0,7.32a1.94,1.94,0,0,1-.79,1.81H.79A1.94,1.94,0,0,1,0,73.07Q0,37.36,0,1.62C0,.41.43,0,1.66,0h44c1.22,0,1.63.42,1.63,1.65V9.92h5V3.05c0-1.44.36-1.8,1.78-1.8,6.27,0,12.55,0,18.83,0A2,2,0,0,1,74.73,2ZM2.56,2.53V72.18H44.8V2.53Zm52.3,1.24V18.62H72.19V3.79H69.74c0,2,0,3.89,0,5.8a1.6,1.6,0,0,1-1,1.66q-2.2,1-4.37,2.19a1.71,1.71,0,0,1-1.76,0c-1.36-.71-2.71-1.42-4.11-2a1.87,1.87,0,0,1-1.24-2c.07-1.86,0-3.72,0-5.62ZM72.18,71V56.09H69.74v.79c0,1.69,0,3.37,0,5.06a1.57,1.57,0,0,1-1,1.61c-1.52.72-3,1.54-4.54,2.22a2.21,2.21,0,0,1-1.52,0c-1.05-.42-2.05-1-3.07-1.51-2.67-1.37-2.36-.76-2.38-3.82V56.11H54.84V71Zm-2.44-41c0,2,0,3.9,0,5.81a1.65,1.65,0,0,1-1.07,1.7c-1.45.68-2.88,1.41-4.31,2.15a1.68,1.68,0,0,1-1.69,0c-1.47-.77-2.95-1.52-4.44-2.23a1.55,1.55,0,0,1-1-1.6c0-1.71,0-3.42,0-5.14v-.71H54.85V44.78H72.19V29.93Zm-2.49,0H59.78c0,1.71,0,3.36,0,5a.91.91,0,0,0,.46.59c.93.51,1.88,1,2.84,1.43a1,1,0,0,0,.77,0c1-.46,2-1,3-1.5a.8.8,0,0,0,.39-.56C67.27,33.31,67.25,31.65,67.25,30Zm0,26.16H59.78c0,1.69,0,3.32,0,5a.94.94,0,0,0,.4.63c1,.53,2,1,3,1.5a.92.92,0,0,0,.71,0c1-.47,2-1,3-1.49a.85.85,0,0,0,.38-.57C67.27,59.45,67.25,57.8,67.25,56.11ZM59.78,3.75V6.6c0,.85-.25,1.87.13,2.5s1.47.78,2.17,1.25a2.29,2.29,0,0,0,2.88,0c.7-.47,1.78-.63,2.17-1.25s.12-1.66.12-2.51,0-1.89,0-2.84Z"/><path class="cls-1" d="M23.67,7.47h9.57c1.22,0,1.64.42,1.64,1.63V25.76c0,1.21-.43,1.64-1.64,1.64H14.1c-1.21,0-1.63-.42-1.63-1.63q0-8.37,0-16.74c0-1.11.43-1.55,1.55-1.55ZM29.9,10c0,2,0,4,0,6a1.43,1.43,0,0,1-.83,1.45c-1.58.78-3.14,1.6-4.74,2.33a1.75,1.75,0,0,1-1.31,0c-1.6-.72-3.16-1.55-4.74-2.33A1.43,1.43,0,0,1,17.44,16q0-2.61,0-5.22c0-.24,0-.49,0-.74H15V24.86H32.33V10Zm-10,0c0,1.73,0,3.4,0,5.08a.8.8,0,0,0,.42.54c.95.51,1.92,1,2.91,1.46a1,1,0,0,0,.77,0c1-.45,2-.95,2.92-1.45.17-.1.4-.31.41-.47,0-1.71,0-3.41,0-5.15Z"/><path class="cls-1" d="M15,67.26H6.62C5.41,67.26,5,66.83,5,65.61V58.84c0-1.11.45-1.54,1.57-1.54h16.8c1.12,0,1.55.44,1.55,1.56q0,3.42,0,6.85c0,1.1-.45,1.55-1.56,1.55ZM7.52,64.71H22.36V59.83H7.52Z"/><path class="cls-1" d="M15,44.84h8.25c1.22,0,1.63.42,1.63,1.64q0,3.35,0,6.69c0,1.21-.43,1.63-1.63,1.63q-8.33,0-16.65,0C5.42,54.8,5,54.38,5,53.16V46.39c0-1.11.44-1.55,1.56-1.55ZM7.54,47.37v4.89H22.39V47.37Z"/><path class="cls-1" d="M14.88,42.35H6.63C5.42,42.35,5,41.93,5,40.71V33.94c0-1.11.44-1.55,1.56-1.55H23.36c1.11,0,1.55.44,1.55,1.55,0,2.28,0,4.57,0,6.85,0,1.11-.45,1.55-1.55,1.56ZM7.54,34.91V39.8H22.38V34.91Z"/><path class="cls-1" d="M42.31,33.68v2.4H27.47v-2.4Z"/><path class="cls-1" d="M27.44,41.05v-2.4H42.29v2.4Z"/><path class="cls-1" d="M27.44,48.52v-2.4H42.29v2.4Z"/><path class="cls-1" d="M42.31,53.53H27.46V51.11H42.31Z"/><path class="cls-1" d="M27.44,61v-2.4H42.29V61Z"/><path class="cls-1" d="M27.44,66v-2.4H42.29V66Z"/><path class="cls-1" d="M66,33.61H61.09V31.2H66Z"/><path class="cls-1" d="M61,59.74V57.36H66v2.38Z"/><path class="cls-1" d="M61.06,7.43V5H66v2.4Z"/><path class="cls-1" d="M21.22,11.24h4.89v2.41H21.22Z"/></g></g></g></svg>