<svg xmlns="http://www.w3.org/2000/svg" viewBox="0 0 82.53 68.11"><defs><style>.cls-1{fill:#fbad18;}</style></defs><g id="Layer_2" data-name="Layer 2"><g id="Layer_1-2" data-name="Layer 1"><path class="cls-1" d="M80.92,59.68H67.74a1.61,1.61,0,0,1,0-3.22H80.92a1.61,1.61,0,0,1,0,3.22Z"/><path class="cls-1" d="M53.17,59.68H40a1.61,1.61,0,0,1,0-3.22H53.17a1.61,1.61,0,0,1,0,3.22Z"/><path class="cls-1" d="M60.49,59.68a1.61,1.61,0,0,1-1.05-2.84,1.64,1.64,0,0,1,1.9-.13,1.61,1.61,0,0,1-.85,3Z"/><path class="cls-1" d="M80.92,51.26H40A1.61,1.61,0,0,1,40,48H80.92a1.61,1.61,0,0,1,0,3.22Z"/><path class="cls-1" d="M80.92,68.11H40a1.62,1.62,0,0,1,0-3.23H80.92a1.62,1.62,0,0,1,0,3.23Z"/><path class="cls-1" d="M32.24,0H1.61A1.61,1.61,0,0,0,0,1.61V66.49a1.61,1.61,0,0,0,1.61,1.62H32.24a1.61,1.61,0,0,0,1.61-1.62V1.61A1.61,1.61,0,0,0,32.24,0Zm-29,3.22H30.63V48.06H3.22ZM30.63,64.88H3.22V51.28H30.63Z"/><path class="cls-1" d="M56.35,42.87H40a1.61,1.61,0,0,1-1.61-1.61v-16A1.61,1.61,0,0,1,40,23.69H56.35A1.61,1.61,0,0,1,58,25.3v16a1.61,1.61,0,0,1-1.61,1.61ZM41.6,39.65H54.73V26.91H41.6Z"/><path class="cls-1" d="M80.92,42.87H64.57A1.62,1.62,0,0,1,63,41.26v-16a1.62,1.62,0,0,1,1.62-1.61H80.92a1.61,1.61,0,0,1,1.61,1.61v16a1.61,1.61,0,0,1-1.61,1.61ZM66.18,39.65H79.31V26.91H66.18Z"/><path class="cls-1" d="M80.92,19.18H40a1.61,1.61,0,0,1-1.61-1.61v-16A1.61,1.61,0,0,1,40,0H80.92a1.61,1.61,0,0,1,1.61,1.61v16a1.61,1.61,0,0,1-1.61,1.61ZM41.6,16H79.31V3.22H41.6Z"/></g></g></svg>