<svg xmlns="http://www.w3.org/2000/svg" viewBox="0 0 74.91 85.33"><defs><style>.cls-1{fill:#f9ad1b;}.cls-2,.cls-3,.cls-4{fill:none;stroke:#f9ad1b;stroke-linecap:round;stroke-linejoin:round;stroke-width:2px;}.cls-3{stroke-dasharray:3.17 3.17;}.cls-4{stroke-dasharray:2.78 2.78;}</style></defs><title>Asset 8</title><g id="Layer_2" data-name="Layer 2"><g id="Layer_1-2" data-name="Layer 1"><path class="cls-1" d="M70.66.27,4.25,0A4.17,4.17,0,0,0,0,4.25V80.82a4.17,4.17,0,0,0,4.25,4.25l67.09.26A3.39,3.39,0,0,0,74.74,82l.17-13.09V4.52A4.17,4.17,0,0,0,70.66.27Zm1.42,67.49V80.59a2.05,2.05,0,0,1-2.07,2l-65.76-.4a1.34,1.34,0,0,1-1.41-1.42V4.25A1.33,1.33,0,0,1,4.25,2.84l66.41.26a1.34,1.34,0,0,1,1.42,1.42Z"/><path class="cls-1" d="M48.15,30.23V12.93L35.39,6.55,22.63,12.93v17.3l12.76,6.38Zm-7.8-18,3.55,1.7-8.51,5.24-3.55-2.12-2.69-1.7-2.27-1.42,8.51-4.26,1.84,1ZM25.46,16.34,34,21.58v8.23h2.84V21.58l8.51-5.24V28.53l-9.93,5-9.93-5Z"/><polyline class="cls-2" points="65.65 74.67 65.65 76.17 64.15 76.17"/><line class="cls-3" x1="60.98" y1="76.17" x2="11.86" y2="76.17"/><polyline class="cls-2" points="10.27 76.17 8.77 76.17 8.77 74.67"/><line class="cls-4" x1="8.77" y1="71.88" x2="8.77" y2="45.44"/><polyline class="cls-2" points="8.77 44.05 8.77 42.55 10.27 42.55"/><line class="cls-3" x1="13.44" y1="42.55" x2="62.57" y2="42.55"/><polyline class="cls-2" points="64.15 42.55 65.65 42.55 65.65 44.05"/><line class="cls-4" x1="65.65" y1="46.83" x2="65.65" y2="73.28"/><path class="cls-1" d="M32.6,48.21V60.39a2.55,2.55,0,0,0,2.55,2.55h1.7a2.55,2.55,0,0,0,2.55-2.55V48.21a3.4,3.4,0,0,0-6.8,0Zm4.53,0V60.39a.27.27,0,0,1-.28.28h-1.7a.27.27,0,0,1-.28-.28V48.21a1.13,1.13,0,1,1,2.26,0Z"/><path class="cls-1" d="M36,65.21a3.4,3.4,0,1,0,3.4,3.4A3.4,3.4,0,0,0,36,65.21Zm0,4.53a1.14,1.14,0,1,1,1.13-1.13A1.14,1.14,0,0,1,36,69.74Z"/></g></g></svg>