<svg xmlns="http://www.w3.org/2000/svg" viewBox="0 0 92.32 81.49"><defs><style>.cls-1{fill:#f9ad1b;}</style></defs><title>Asset 3</title><g id="Layer_2" data-name="Layer 2"><g id="Layer_1-2" data-name="Layer 1"><path class="cls-1" d="M40.29,32.08v19a4,4,0,0,0,4,4h2.65a4,4,0,0,0,4-4v-19a5.3,5.3,0,0,0-10.6,0Zm7.07,0v19a.45.45,0,0,1-.45.44H44.26a.44.44,0,0,1-.44-.44v-19a1.77,1.77,0,0,1,3.54,0Z"/><path class="cls-1" d="M45.59,58.59a5.31,5.31,0,1,0,5.3,5.3A5.31,5.31,0,0,0,45.59,58.59Zm0,7.07a1.77,1.77,0,1,1,1.77-1.77A1.77,1.77,0,0,1,45.59,65.66Z"/><path class="cls-1" d="M86.52,81.49H5.8a5.8,5.8,0,0,1-5-8.69L41.14,2.9h0a5.74,5.74,0,0,1,5-2.9h0a5.74,5.74,0,0,1,5,2.9L91.53,72.8a5.8,5.8,0,0,1-5,8.69ZM44,4.52,3.59,74.42A2.56,2.56,0,0,0,5.8,78.25H86.52a2.56,2.56,0,0,0,2.21-3.83L48.37,4.52a2.55,2.55,0,0,0-4.42,0Z"/></g></g></svg>