<svg xmlns="http://www.w3.org/2000/svg" viewBox="0 0 237.1 165.94"><defs><style>.cls-1{fill:#fbad18;}</style></defs><g id="Layer_2" data-name="Layer 2"><g id="Layer_1-2" data-name="Layer 1"><g id="_5WHmVN.tif" data-name="5WHmVN.tif"><path class="cls-1" d="M237.1,84.37c-1.4,3.48-4,4.71-7.69,4.61-5.54-.14-11.09,0-16.43,0a57.51,57.51,0,0,1-3.51,7c-5.42,8-13.11,11.67-22.65,10.53s-16-6.53-19.37-15.43c-.66-1.7-1.42-2.11-3.13-2.11q-78.1.06-156.23,0a15.34,15.34,0,0,1-3.89-.37,5.81,5.81,0,0,1,0-11.16A15.29,15.29,0,0,1,8.08,77q78,0,156,0c1.86,0,2.76-.42,3.45-2.33a23.32,23.32,0,0,1,22.05-15.4,23.68,23.68,0,0,1,22.34,15.42c.26.72.51,1.44.82,2.29,5.58,0,11.13.11,16.67,0,3.65-.1,6.29,1.12,7.69,4.61Zm-35.63-1.28a11.82,11.82,0,1,0-11.81,11.74A11.84,11.84,0,0,0,201.47,83.09Z"/><path class="cls-1" d="M237.1,143.65c-1.4,3.49-4,4.62-7.69,4.61-28.47-.07-56.94,0-85.41-.07-1.78,0-2.63.38-3.28,2.21a23.61,23.61,0,0,1-44.31.19c-.73-2-1.68-2.4-3.63-2.4q-42.12.1-84.25,0a17.54,17.54,0,0,1-4.35-.39,5.81,5.81,0,0,1,0-11.16,14.4,14.4,0,0,1,3.66-.36q42.59,0,85.18,0c1.76,0,2.64-.36,3.29-2.19a23.61,23.61,0,0,1,44.37,0c.65,1.83,1.51,2.22,3.28,2.21,28.47-.05,56.95,0,85.42-.08,3.65,0,6.28,1.14,7.68,4.62ZM130.4,142.3a11.86,11.86,0,1,0-12,11.82A11.92,11.92,0,0,0,130.4,142.3Z"/><path class="cls-1" d="M237.1,25.09c-1.39,3.5-4,4.62-7.69,4.61q-78.12-.07-156.25-.08c-2,0-2.92.39-3.65,2.4A23.29,23.29,0,0,1,47.43,47.37a23.57,23.57,0,0,1-22.18-15.3c-.28-.72-.53-1.44-.88-2.39H8.77a28.62,28.62,0,0,1-3.47-.09,5.91,5.91,0,0,1,0-11.76,28.62,28.62,0,0,1,3.47-.09H24.42A24.51,24.51,0,0,1,31.08,6.52a23.61,23.61,0,0,1,38.43,8.87c.75,2,1.7,2.4,3.65,2.4q78.12-.09,156.25-.1c3.64,0,6.3,1.12,7.69,4.62ZM35.6,23.76A11.83,11.83,0,1,0,47.46,11.84,11.86,11.86,0,0,0,35.6,23.76Z"/></g></g></g></svg>