<svg xmlns="http://www.w3.org/2000/svg" viewBox="0 0 69.47 69.43"><defs><style>.cls-1{fill:#fbad18;}</style></defs><g id="Layer_2" data-name="Layer 2"><g id="Layer_1-2" data-name="Layer 1"><g id="xr9fGY.tif"><path class="cls-1" d="M0,23.61a5.41,5.41,0,0,1,3-3.37c2-1,3.84-2.17,5.83-3.31A9.41,9.41,0,0,1,5.23,8.11a9,9,0,0,1,3.31-6,9.5,9.5,0,0,1,12.64.57,9.55,9.55,0,0,1-.9,14.22l.57.35c2,1.13,3.94,2.27,5.92,3.37a4.31,4.31,0,0,1,2.33,4.18l-.6,24.71a4.16,4.16,0,0,1-2.92,4c-.92.35-1.85.71-2.79,1a.81.81,0,0,0-.66.92c0,3.2,0,6.4,0,9.6a4,4,0,0,1-2.67,4,4.41,4.41,0,0,1-1.39.24c-2.23,0-4.46,0-6.69.05A4.13,4.13,0,0,1,7,65.05c0-3.18,0-6.36,0-9.54,0-.5-.11-.77-.62-.93-1-.32-2-.71-3-1.1A4,4,0,0,1,.61,49.7C.5,46.53.44,43.35.37,40.17c0-1.2.58-1.94,1.58-2s1.7.69,1.73,1.91c.08,3,.13,6,.19,8.92,0,1.11.06,1.16,1.12,1.55L8.88,52a1.79,1.79,0,0,1,1.39,2c0,3.62,0,7.23,0,10.84,0,1.08.17,1.24,1.26,1.24h6.07c1,0,1.21-.21,1.21-1.18,0-3.64,0-7.27,0-10.91a1.74,1.74,0,0,1,1.38-2c1.33-.49,2.66-1,4-1.46a1.28,1.28,0,0,0,1-1.35c.12-6.27.28-12.55.43-18.82.05-1.92.08-3.84.14-5.76a1,1,0,0,0-.59-1.05c-2.62-1.49-5.22-3-7.84-4.48a2.42,2.42,0,0,0-1.11-.29c-1.14,0-2.28,0-3.41,0a2.42,2.42,0,0,0-1.05.28c-2.61,1.46-5.19,3-7.8,4.43a1.13,1.13,0,0,0-.67,1.19c0,.57,0,1.15,0,1.73A1.68,1.68,0,0,1,2,28.27,1.67,1.67,0,0,1,.1,27c0-.09-.07-.18-.1-.28Zm14.57-8.13a6.13,6.13,0,0,0,6.09-6.06,6.11,6.11,0,1,0-6.09,6.06Z"/><path class="cls-1" d="M46.57,17.06a9.44,9.44,0,1,1,11.08,0c1.19.89,2.33,1.8,3.53,2.63a5.3,5.3,0,0,1,2.24,3.42c.7,3.15,1.5,6.29,2.26,9.44a3.11,3.11,0,0,1,.11.91,1.63,1.63,0,0,1-1.55,1.49,1.6,1.6,0,0,1-1.7-1.33c-.47-1.9-.92-3.8-1.38-5.71-.36-1.48-.7-3-1.09-4.44a1.63,1.63,0,0,0-.55-.84Q57.27,20.86,55,19.19a2.24,2.24,0,0,0-1.13-.38c-1.17,0-2.35,0-3.53,0a1.82,1.82,0,0,0-1,.31c-1.57,1.14-3.13,2.3-4.66,3.49a1.94,1.94,0,0,0-.58,1q-2.46,10.09-4.88,20.19c-.35,1.42-.69,2.85-1,4.27-.22.93-.1,1.14.81,1.46l7.42,2.58a1.71,1.71,0,0,1,1.4,2l0,10.9c0,1,.21,1.16,1.16,1.16,2.08,0,4.17,0,6.25,0,.89,0,1.1-.21,1.11-1.09l0-10.84c0-1.34.29-1.73,1.57-2.17l7.25-2.49c.94-.32,1.05-.53.81-1.52-.12-.48-.24-1-.34-1.44a1.64,1.64,0,0,1,3.16-.88,20.17,20.17,0,0,1,.59,2.53,4,4,0,0,1-2.63,4.24c-2.15.79-4.31,1.53-6.49,2.25a.78.78,0,0,0-.63.92c0,3.14,0,6.28,0,9.41a4.05,4.05,0,0,1-4.3,4.37l-6.38,0A4.15,4.15,0,0,1,44.54,65c0-3.16,0-6.32,0-9.47a.69.69,0,0,0-.56-.79c-2.1-.71-4.18-1.43-6.26-2.16a4.09,4.09,0,0,1-2.8-5.14q3-12.44,6-24.88A4.32,4.32,0,0,1,42.64,20C43.94,19,45.23,18.06,46.57,17.06ZM46,9.34a6.1,6.1,0,1,0,6.09-6A6.08,6.08,0,0,0,46,9.34Z"/><path class="cls-1" d="M67.36,39.67a1.64,1.64,0,1,1-3.28.06,1.64,1.64,0,1,1,3.28-.06Z"/><path class="cls-1" d="M.23,33.21A1.6,1.6,0,0,1,1.9,31.6a1.64,1.64,0,0,1,0,3.28A1.62,1.62,0,0,1,.23,33.21Z"/></g></g></g></svg>