<svg xmlns="http://www.w3.org/2000/svg" viewBox="0 0 87.13 81.31"><defs><style>.cls-1{fill:#fbad18;}</style></defs><g id="Layer_2" data-name="Layer 2"><g id="Layer_1-2" data-name="Layer 1"><g id="gPnfAP.tif"><path class="cls-1" d="M0,8.65A21.53,21.53,0,0,1,.85,6a9.87,9.87,0,0,1,8.7-6c.31,0,.63,0,.94,0H76.67A10,10,0,0,1,86.85,7.81a11.33,11.33,0,0,1,.27,2.53q0,20.58,0,41.16a10,10,0,0,1-10.2,10.24c-6,0-12.08,0-18.12,0a2.69,2.69,0,0,0-2.62,1.49c-2.91,5.12-5.91,10.19-8.81,15.31a5.4,5.4,0,0,1-3.13,2.79H42.88a5.33,5.33,0,0,1-3.13-2.78c-2.9-5.12-5.89-10.19-8.8-15.31a2.72,2.72,0,0,0-2.61-1.5c-6.15,0-12.3,0-18.45,0A9.68,9.68,0,0,1,2.1,57.9,11.79,11.79,0,0,1,0,53.06V22.43c.44-.57.94-1,1.72-.7s.84,1,.84,1.69q0,14.11,0,28.24A7.35,7.35,0,0,0,8.73,59.1a6.63,6.63,0,0,0,1.18.08c6.13,0,12.25,0,18.38,0A5.11,5.11,0,0,1,33.19,62c3,5.22,6,10.4,9,15.6.88,1.53,1.86,1.53,2.74,0,3-5.27,6.13-10.52,9.14-15.81a4.8,4.8,0,0,1,4.58-2.63c6.13,0,12.25,0,18.38,0a7.38,7.38,0,0,0,7.54-7.53q0-13.09,0-26.19V10.58c0-4.89-3.15-8-8-8h-66C6.33,2.55,3.21,5,2.64,8.92a34.26,34.26,0,0,0-.09,4.42c0,1.05,0,2.1,0,3.15,0,.73-.11,1.39-.89,1.65A1.35,1.35,0,0,1,0,17.33Z"/><path class="cls-1" d="M43.56,9.81c8.9,0,17.81.08,26.71,0a5.94,5.94,0,0,1,6.31,6.29c-.07,9.89,0,19.79,0,29.68,0,3.88-2.38,6.26-6.26,6.26H16.79c-3.89,0-6.22-2.34-6.22-6.27v-30a5.59,5.59,0,0,1,5.94-5.9Q30,9.79,43.56,9.81ZM13.12,43.15l.17.11c.24-.26.48-.53.71-.8L31,23.23a4.09,4.09,0,0,1,3.91-1.35,5.53,5.53,0,0,1,3.19,2.24q11,12.43,22,24.83a1.52,1.52,0,0,0,1,.49q4.73,0,9.44,0a3.22,3.22,0,0,0,3-1.49.73.73,0,0,0-.06-1Q67.26,40,61.08,33a1.6,1.6,0,0,0-2.68,0c-.92,1-1.8,2-2.71,3s-1.45,1-2.11.41-.54-1.25.18-2.08l2.59-2.93c2.06-2.34,4.79-2.3,6.87.06C66.59,35.36,70,39.17,73.37,43a3.76,3.76,0,0,1,.37.62l.24-.2c0-.13,0-.27,0-.4q0-13.65,0-27.3a3.24,3.24,0,0,0-3.51-3.37q-26.93,0-53.85,0c-2.36,0-3.52,1.18-3.53,3.57V43.15Zm44,6.31-1.5-1.72-20-22.53q-1.47-1.68-2.86-.12Q23.22,35.9,13.62,46.71a.77.77,0,0,0-.13,1,3.47,3.47,0,0,0,3.29,1.7H57.11Z"/><path class="cls-1" d="M64.93,25.69a5,5,0,1,1,5-5A5,5,0,0,1,64.93,25.69Zm0-2.55A2.47,2.47,0,0,0,65,18.21a2.47,2.47,0,1,0-.09,4.93Z"/></g></g></g></svg>