<svg xmlns="http://www.w3.org/2000/svg" viewBox="0 0 86.64 86.64"><defs><style>.cls-1{fill:#f9ad1b;}</style></defs><title>Asset 7</title><g id="Layer_2" data-name="Layer 2"><g id="Layer_1-2" data-name="Layer 1"><path class="cls-1" d="M61.93,70.77l-.06,0a1.69,1.69,0,0,0,1,3.09,1.66,1.66,0,0,0,1-.29l0,0a1.69,1.69,0,1,0-1.88-2.81Z"/><path class="cls-1" d="M23.77,16.15a1.65,1.65,0,0,0,.94-.29l.05,0A1.69,1.69,0,1,0,22.87,13l-.05,0a1.69,1.69,0,0,0,.95,3.1Z"/><path class="cls-1" d="M86.64,43.32A43.32,43.32,0,0,0,17.92,8.23a1.69,1.69,0,1,0,2,2.74A39.93,39.93,0,0,1,72.73,70.33l-2.4-2.39A36.55,36.55,0,0,0,27.17,10.53a1.69,1.69,0,0,0,1.49,3,33.16,33.16,0,0,1,39.27,52l-9-9c.21-.12.42-.24.62-.37A32.7,32.7,0,0,0,71,44.14a1.69,1.69,0,0,0-3-1.64A29.07,29.07,0,0,1,56.39,54l-3.32-3.32A12.21,12.21,0,0,0,36,33.57l-2.44-2.44a27.31,27.31,0,0,1,9.8-1.82,27.88,27.88,0,0,1,18,6.66,1.69,1.69,0,0,0,2.19-2.58,31,31,0,0,0-32.6-4.87L8.74,6.34a1.7,1.7,0,0,0-2.4,2.4l5.18,5.17a43.31,43.31,0,0,0,1.17,60,43.31,43.31,0,0,0,56,4.46,1.69,1.69,0,1,0-2-2.74A39.93,39.93,0,0,1,13.91,16.3l2.4,2.4A36.55,36.55,0,0,0,59.47,76.11a1.69,1.69,0,0,0-1.5-3,33.16,33.16,0,0,1-39.27-52l9,9-.63.37a32.75,32.75,0,0,0-11.44,12,1.67,1.67,0,0,0,0,1.65,32.68,32.68,0,0,0,11.44,12,31,31,0,0,0,28.61,2L71.55,74h0l6.34,6.34a1.69,1.69,0,0,0,2.39-2.39l-5.17-5.17A43.35,43.35,0,0,0,86.64,43.32ZM43.32,34.48a8.83,8.83,0,0,1,7.33,13.77L38.38,36A8.74,8.74,0,0,1,43.32,34.48ZM36,38.38,48.26,50.65a8.84,8.84,0,0,1-13.78-7.33A8.74,8.74,0,0,1,36,38.38Zm7.33,18.95a28.42,28.42,0,0,1-24.22-14A29.06,29.06,0,0,1,30.24,32.63L33.57,36a12.11,12.11,0,0,0-2.48,7.36,12.22,12.22,0,0,0,19.59,9.75l2.43,2.44A27.43,27.43,0,0,1,43.32,57.33Z"/><path class="cls-1" d="M66.06,40a1.62,1.62,0,0,0,1.06-.38,1.69,1.69,0,0,0,.26-2.38l0-.05a1.7,1.7,0,0,0-2.64,2.13l0,0A1.72,1.72,0,0,0,66.06,40Z"/></g></g></svg>