<svg xmlns="http://www.w3.org/2000/svg" viewBox="0 0 81.97 80.87"><defs><style>.cls-1{fill:#f9ad1b;}</style></defs><title>Asset 5</title><g id="Layer_2" data-name="Layer 2"><g id="Layer_1-2" data-name="Layer 1"><path class="cls-1" d="M5.44,36A3.94,3.94,0,0,1,1.5,32V5.44A3.93,3.93,0,0,1,5.44,1.5H32A3.94,3.94,0,0,1,36,5.44V18.3l1.5,1.5V5.44A5.45,5.45,0,0,0,32,0H5.44A5.45,5.45,0,0,0,0,5.44V32a5.45,5.45,0,0,0,5.44,5.44H21.12L19.62,36Z"/><path class="cls-1" d="M5.44,34.46A2.44,2.44,0,0,1,3,32V5.44A2.44,2.44,0,0,1,5.44,3H32a2.44,2.44,0,0,1,2.44,2.44V16.8L36,18.3V5.44A3.94,3.94,0,0,0,32,1.5H5.44A3.93,3.93,0,0,0,1.5,5.44V32A3.94,3.94,0,0,0,5.44,36H19.62l-1.5-1.5Z"/><path class="cls-1" d="M46,5.44A3.94,3.94,0,0,1,50,1.5H76.53a3.93,3.93,0,0,1,3.94,3.94V32A3.94,3.94,0,0,1,76.53,36H62.3l-1.5,1.5H76.53A5.45,5.45,0,0,0,82,32V5.44A5.45,5.45,0,0,0,76.53,0H50a5.45,5.45,0,0,0-5.44,5.44V19.75l1.5-1.5Z"/><path class="cls-1" d="M47.51,5.44A2.44,2.44,0,0,1,50,3H76.53A2.44,2.44,0,0,1,79,5.44V32a2.44,2.44,0,0,1-2.44,2.44H63.8L62.3,36H76.53A3.94,3.94,0,0,0,80.47,32V5.44A3.93,3.93,0,0,0,76.53,1.5H50A3.94,3.94,0,0,0,46,5.44V18.25l1.5-1.5Z"/><path class="cls-1" d="M36,75.44A3.94,3.94,0,0,1,32,79.37H5.44A3.93,3.93,0,0,1,1.5,75.44V48.85a3.93,3.93,0,0,1,3.94-3.93H19.35l1.5-1.5H5.44A5.44,5.44,0,0,0,0,48.85V75.44a5.44,5.44,0,0,0,5.44,5.43H32a5.44,5.44,0,0,0,5.44-5.43V60.8L36,62.3Z"/><path class="cls-1" d="M34.46,75.44A2.44,2.44,0,0,1,32,77.87H5.44A2.43,2.43,0,0,1,3,75.44V48.85a2.43,2.43,0,0,1,2.44-2.43H17.85l1.5-1.5H5.44A3.93,3.93,0,0,0,1.5,48.85V75.44a3.93,3.93,0,0,0,3.94,3.93H32A3.94,3.94,0,0,0,36,75.44V62.3l-1.5,1.5Z"/><path class="cls-1" d="M76.53,44.92a3.93,3.93,0,0,1,3.94,3.93V75.44a3.93,3.93,0,0,1-3.94,3.93H50A3.94,3.94,0,0,1,46,75.44V62.36l-1.5-1.51V75.44A5.44,5.44,0,0,0,50,80.87H76.53A5.44,5.44,0,0,0,82,75.44V48.85a5.44,5.44,0,0,0-5.44-5.43H61.07l1.5,1.5Z"/><path class="cls-1" d="M76.53,46.42A2.43,2.43,0,0,1,79,48.85V75.44a2.43,2.43,0,0,1-2.44,2.43H50a2.44,2.44,0,0,1-2.44-2.43V63.86L46,62.36V75.44A3.94,3.94,0,0,0,50,79.37H76.53a3.93,3.93,0,0,0,3.94-3.93V48.85a3.93,3.93,0,0,0-3.94-3.93h-14l1.5,1.5Z"/><path class="cls-1" d="M37.46,51.7v.61l3.39-3.38a1.66,1.66,0,0,0-1.11.49Z"/><path class="cls-1" d="M31.84,41.51a1.64,1.64,0,0,0,.49-1.1l-3,3h.61Z"/><path class="cls-1" d="M39.74,31.19a1.78,1.78,0,0,0,1.11.49l-3.39-3.39v.61Z"/><path class="cls-1" d="M44.51,28.84v-.61l-3.44,3.45a1.76,1.76,0,0,0,1.1-.49Z"/><path class="cls-1" d="M42.17,49.42a1.66,1.66,0,0,0-1.1-.49l3.44,3.44v-.61Z"/><path class="cls-1" d="M30.21,37.46H29.6l2.73,2.73a1.64,1.64,0,0,0-.49-1.1Z"/><path class="cls-1" d="M52,43.42h.61l-3-3a1.76,1.76,0,0,0,.49,1.11Z"/><path class="cls-1" d="M50.07,39.09a1.76,1.76,0,0,0-.49,1.1l2.73-2.73H51.7Z"/><path class="cls-1" d="M21,28.25a2,2,0,0,1-.58-1.4A2,2,0,0,1,21,25.46l5.11-5.11a2,2,0,0,1,1.4-.58,1.91,1.91,0,0,1,1.39.58l5.56,5.55v-.61L29.21,20a2.44,2.44,0,0,0-3.4,0L20.7,25.15a2.39,2.39,0,0,0,0,3.4l5.9,5.91h.61Z"/><polygon class="cls-1" points="28.71 35.96 28.1 35.96 29.6 37.46 30.21 37.46 28.71 35.96"/><polygon class="cls-1" points="37.46 28.9 37.46 28.29 35.96 26.79 35.96 27.4 37.46 28.9"/><polygon class="cls-1" points="35.96 27.4 35.96 26.79 34.46 25.29 34.46 25.9 35.96 27.4"/><polygon class="cls-1" points="27.21 34.46 26.6 34.46 28.1 35.96 28.71 35.96 27.21 34.46"/><path class="cls-1" d="M53,20.35a2,2,0,0,1,2.79,0l5.11,5.11a2,2,0,0,1,0,2.79L54.7,34.46h.61l5.91-5.91a2.41,2.41,0,0,0,0-3.4L56.11,20a2.44,2.44,0,0,0-3.4,0l-5.2,5.19v.61Z"/><polygon class="cls-1" points="46.01 27.34 46.01 26.73 44.51 28.23 44.51 28.84 46.01 27.34"/><polygon class="cls-1" points="51.7 37.46 52.31 37.46 53.81 35.96 53.2 35.96 51.7 37.46"/><polygon class="cls-1" points="54.7 34.46 53.2 35.96 53.81 35.96 55.31 34.46 54.7 34.46"/><polygon class="cls-1" points="47.51 25.84 47.51 25.23 46.01 26.73 46.01 27.34 47.51 25.84"/><path class="cls-1" d="M28.9,60.26a2,2,0,0,1-1.39.58,2,2,0,0,1-1.4-.58L21,55.14a2,2,0,0,1,0-2.78l5.94-5.94h-.61L20.7,52.05a2.39,2.39,0,0,0,0,3.4l5.11,5.11a2.44,2.44,0,0,0,3.4,0l5.25-5.25V54.7Z"/><polygon class="cls-1" points="29.94 43.42 29.33 43.42 27.83 44.91 28.44 44.91 29.94 43.42"/><polygon class="cls-1" points="35.96 53.2 35.96 53.81 37.46 52.31 37.46 51.7 35.96 53.2"/><polygon class="cls-1" points="34.46 54.7 34.46 55.31 35.96 53.81 35.96 53.2 34.46 54.7"/><polygon class="cls-1" points="28.44 44.91 27.83 44.91 26.33 46.42 26.94 46.42 28.44 44.91"/><path class="cls-1" d="M60.91,52.36a2,2,0,0,1,0,2.78L55.8,60.26a2,2,0,0,1-2.79,0l-5.5-5.5v.61l5.2,5.19a2.43,2.43,0,0,0,3.39,0l5.12-5.11a2.41,2.41,0,0,0,0-3.4l-5.64-5.63H55Z"/><polygon class="cls-1" points="53.47 44.91 54.08 44.91 52.58 43.42 51.97 43.42 53.47 44.91"/><polygon class="cls-1" points="44.51 51.76 44.51 52.37 46.01 53.87 46.01 53.26 44.51 51.76"/><polygon class="cls-1" points="54.97 46.42 55.58 46.42 54.08 44.91 53.47 44.91 54.97 46.42"/><polygon class="cls-1" points="46.01 53.26 46.01 53.87 47.51 55.37 47.51 54.76 46.01 53.26"/><path class="cls-1" d="M32.33,40.41a.81.81,0,0,0,0-.22L29.6,37.46H25.36L28.2,40.3l-3.11,3.12h4.24Z"/><path class="cls-1" d="M40.85,31.68h.22l3.44-3.45V24L41,27.55,37.46,24v4.25Z"/><path class="cls-1" d="M49.58,40.19v.22l3,3h4.25L53.71,40.3l2.85-2.84H52.31Z"/><path class="cls-1" d="M41.07,48.93l-.11,0-.11,0-3.39,3.38v4.25l3.5-3.5,3.55,3.55V52.37Z"/><path class="cls-1" d="M20,26.85a2.37,2.37,0,0,1,.71-1.7L25.81,20a2.44,2.44,0,0,1,3.4,0l5.25,5.25V21l-3.13-3.12a5.41,5.41,0,0,0-7.64,0L18.57,23a5.41,5.41,0,0,0,0,7.64l3.79,3.79H26.6l-5.9-5.91A2.37,2.37,0,0,1,20,26.85Z"/><polygon class="cls-1" points="28.1 35.96 23.86 35.96 25.36 37.46 29.6 37.46 28.1 35.96"/><polygon class="cls-1" points="37.46 28.29 37.46 24.05 35.96 22.55 35.96 26.79 37.46 28.29"/><polygon class="cls-1" points="34.46 25.29 35.96 26.79 35.96 22.55 34.46 21.05 34.46 25.29"/><polygon class="cls-1" points="26.6 34.46 22.36 34.46 23.86 35.96 28.1 35.96 26.6 34.46"/><path class="cls-1" d="M56.11,20l5.11,5.11a2.41,2.41,0,0,1,0,3.4l-5.91,5.91h4.25l3.78-3.79a5.41,5.41,0,0,0,0-7.64l-5.11-5.11a5.42,5.42,0,0,0-7.65,0L47.51,21v4.24L52.71,20A2.44,2.44,0,0,1,56.11,20Z"/><polygon class="cls-1" points="46.01 26.73 46.01 22.49 44.51 23.99 44.51 28.23 46.01 26.73"/><polygon class="cls-1" points="53.81 35.96 52.31 37.46 56.56 37.46 58.06 35.96 53.81 35.96"/><polygon class="cls-1" points="47.51 25.23 47.51 20.99 46.01 22.49 46.01 26.73 47.51 25.23"/><polygon class="cls-1" points="55.31 34.46 53.81 35.96 58.06 35.96 59.56 34.46 55.31 34.46"/><path class="cls-1" d="M25.81,60.56,20.7,55.45a2.39,2.39,0,0,1,0-3.4l5.63-5.63H22.09l-3.52,3.51a5.41,5.41,0,0,0,0,7.64l5.12,5.11a5.38,5.38,0,0,0,7.64,0l3.13-3.12V55.31l-5.25,5.25A2.44,2.44,0,0,1,25.81,60.56Z"/><polygon class="cls-1" points="35.96 53.81 35.96 58.06 37.46 56.56 37.46 52.31 35.96 53.81"/><polygon class="cls-1" points="29.33 43.42 25.09 43.42 23.59 44.91 27.83 44.91 29.33 43.42"/><polygon class="cls-1" points="34.46 55.31 34.46 59.56 35.96 58.06 35.96 53.81 34.46 55.31"/><polygon class="cls-1" points="26.33 46.42 27.83 44.91 23.59 44.91 22.09 46.42 26.33 46.42"/><path class="cls-1" d="M61.92,53.75a2.36,2.36,0,0,1-.7,1.7L56.1,60.56a2.43,2.43,0,0,1-3.39,0l-5.2-5.19v4.24l3.07,3.07a5.4,5.4,0,0,0,7.65,0l5.11-5.11a5.41,5.41,0,0,0,0-7.64l-3.51-3.51H55.58l5.64,5.63A2.36,2.36,0,0,1,61.92,53.75Z"/><polygon class="cls-1" points="44.51 52.37 44.51 56.61 46.01 58.11 46.01 53.87 44.51 52.37"/><polygon class="cls-1" points="54.08 44.91 58.33 44.91 56.83 43.42 52.58 43.42 54.08 44.91"/><polygon class="cls-1" points="55.58 46.42 59.83 46.42 58.33 44.91 54.08 44.91 55.58 46.42"/><polygon class="cls-1" points="47.51 55.37 46.01 53.87 46.01 58.11 47.51 59.61 47.51 55.37"/></g></g></svg>