<svg xmlns="http://www.w3.org/2000/svg" viewBox="0 0 91.8 91.8"><defs><style>.cls-1{fill:#f9ad1b;}</style></defs><title>Asset 2</title><g id="Layer_2" data-name="Layer 2"><g id="Layer_1-2" data-name="Layer 1"><path class="cls-1" d="M53,60.29a3.52,3.52,0,0,0-1-2.53l-6.39-6.4L52,45a3.52,3.52,0,0,0,1-2.53,3.56,3.56,0,0,0-1-2.54l-3.4-3.39a3.52,3.52,0,0,0-2.53-1,3.56,3.56,0,0,0-2.54,1L37.09,42.9,30.7,36.51a3.59,3.59,0,0,0-5.07,0l-3.4,3.39a3.6,3.6,0,0,0-1.05,2.54A3.56,3.56,0,0,0,22.23,45l6.4,6.39-6.4,6.4a3.56,3.56,0,0,0-1.05,2.53,3.6,3.6,0,0,0,1.05,2.54l3.4,3.39a3.59,3.59,0,0,0,5.07,0l6.39-6.39,6.39,6.39a3.56,3.56,0,0,0,2.54,1,3.52,3.52,0,0,0,2.53-1L52,62.83a3.56,3.56,0,0,0,1-2.54Zm-2.66.93-3.4,3.39A1.27,1.27,0,0,1,46,65a1.31,1.31,0,0,1-.93-.39L37.9,57.42a1.14,1.14,0,0,0-.81-.34,1.1,1.1,0,0,0-.8.34l-7.2,7.19a1.31,1.31,0,0,1-.93.39,1.29,1.29,0,0,1-.92-.39l-3.4-3.39a1.34,1.34,0,0,1-.38-.93,1.3,1.3,0,0,1,.38-.92l7.2-7.2a1.13,1.13,0,0,0,0-1.61l-7.2-7.2a1.3,1.3,0,0,1-.38-.92,1.34,1.34,0,0,1,.38-.93l3.4-3.39a1.29,1.29,0,0,1,.92-.39,1.31,1.31,0,0,1,.93.39l7.2,7.19a1.13,1.13,0,0,0,1.61,0l7.19-7.19a1.31,1.31,0,0,1,.93-.39,1.27,1.27,0,0,1,.92.39l3.4,3.39a1.3,1.3,0,0,1,.38.93,1.26,1.26,0,0,1-.38.92l-7.2,7.2a1.15,1.15,0,0,0,0,1.61l7.2,7.2a1.26,1.26,0,0,1,.38.92,1.3,1.3,0,0,1-.38.93Z"/><path class="cls-1" d="M67.06,19.36H27.77L54.69,3.82a1.81,1.81,0,0,1,2.45.66L63.21,15a1.79,1.79,0,0,0,3.11-1.79L60.24,2.69a5.39,5.39,0,0,0-7.35-2L20.64,19.34l0,0H5.38A5.39,5.39,0,0,0,0,24.74V86.42A5.38,5.38,0,0,0,5.38,91.8H67.06a5.38,5.38,0,0,0,5.38-5.38V24.74A5.39,5.39,0,0,0,67.06,19.36Zm1.79,67.06a1.8,1.8,0,0,1-1.79,1.8H5.38a1.8,1.8,0,0,1-1.79-1.8V24.74A1.79,1.79,0,0,1,5.38,23H67.06a1.79,1.79,0,0,1,1.79,1.79Z"/><path class="cls-1" d="M78.94,40.45a1.8,1.8,0,0,0,1.26-.53,1.79,1.79,0,0,0,.53-1.27,1.8,1.8,0,0,0-3.59,0,1.79,1.79,0,0,0,.53,1.27A1.81,1.81,0,0,0,78.94,40.45Z"/><path class="cls-1" d="M91.08,56.11,83.66,43.26a1.79,1.79,0,1,0-3.1,1.79L88,57.9a1.8,1.8,0,0,1-.66,2.45L75.79,67a1.8,1.8,0,0,0-.66,2.45,1.8,1.8,0,0,0,2.45.65l11.53-6.66A5.37,5.37,0,0,0,91.08,56.11Z"/><path class="cls-1" d="M45.9,31.56a1.81,1.81,0,0,0,1.8-1.8,1.8,1.8,0,0,0-.53-1.26,1.79,1.79,0,0,0-3.06,1.26A1.82,1.82,0,0,0,44.63,31,1.85,1.85,0,0,0,45.9,31.56Z"/><path class="cls-1" d="M62,28h-7a1.8,1.8,0,1,0,0,3.59h5.2V57.12l0,5.06h0V71H14.73l-2.54-2.53V31.56h24a1.8,1.8,0,0,0,0-3.59H10.4a1.79,1.79,0,0,0-1.79,1.79v43a1.79,1.79,0,0,0,1.79,1.79H62a1.79,1.79,0,0,0,1.79-1.79v-43A1.79,1.79,0,0,0,62,28Z"/></g></g></svg>