<svg xmlns="http://www.w3.org/2000/svg" viewBox="0 0 77.43 89.34"><defs><style>.cls-1{fill:#f9ad1b;}</style></defs><title>Asset 6</title><g id="Layer_2" data-name="Layer 2"><g id="Layer_1-2" data-name="Layer 1"><path class="cls-1" d="M28.29,78.92H19.36a1.49,1.49,0,1,0,0,3h8.93a1.49,1.49,0,1,0,0-3Z"/><path class="cls-1" d="M75.63,57.33,53.77,19.47a25.67,25.67,0,0,0,3.55-4.42c2.48-4,2.92-7.84,1.24-10.74-3.34-5.79-13.88-5.74-24,.1A38.55,38.55,0,0,0,30.68,7l-1.2-1.36a7.55,7.55,0,0,0-11.31,0L1.89,24.1A7.55,7.55,0,0,0,0,29.1V75.94a13.41,13.41,0,0,0,13.4,13.4H34.25a13.42,13.42,0,0,0,13.4-13.4V29.1a7.63,7.63,0,0,0-1.19-4.05h0a36.77,36.77,0,0,0,5.05-3.52L73.05,58.82a10.43,10.43,0,0,1-3.81,14.24L51.18,83.48a10.35,10.35,0,0,1-2.53,1,1.49,1.49,0,0,0,.77,2.88,13.72,13.72,0,0,0,3.25-1.33l18-10.43a13.39,13.39,0,0,0,4.91-18.3Zm-31,18.61A10.44,10.44,0,0,1,34.25,86.36H13.4A10.43,10.43,0,0,1,3,75.94V29.1a4.58,4.58,0,0,1,1.14-3L20.4,7.63a4.56,4.56,0,0,1,6.85,0L41.77,24.09a24.67,24.67,0,0,1-10.62,2.35,7.1,7.1,0,0,0,.12-1.13,7.45,7.45,0,0,0-7.45-7.44,1.28,1.28,0,0,0-.47.1,1.47,1.47,0,0,0-1.62,1.13,8.32,8.32,0,0,0,.73,6,8.08,8.08,0,0,0,4.34,3.48,4.44,4.44,0,0,1-7.44-3.32,1.49,1.49,0,0,0-3,0,7.44,7.44,0,0,0,13.69,4,17.14,17.14,0,0,0,1.76.1,28.74,28.74,0,0,0,12-3,4.57,4.57,0,0,1,.88,2.67ZM28.29,25.31a4.62,4.62,0,0,1-.07.65A5.38,5.38,0,0,1,25,23.66a4.79,4.79,0,0,1-.57-2.75,4.46,4.46,0,0,1,3.82,4.4ZM45,22.46l-.45.25L32.66,9.26A33.15,33.15,0,0,1,36,7C44.43,2.15,53.56,1.61,56,5.81c1.11,1.91.68,4.64-1.2,7.69a21,21,0,0,1-2.56,3.3v0a7.57,7.57,0,0,0-4.14-3.38l-5.83-2a1.49,1.49,0,0,0-.94,2.82l5.83,2a4.64,4.64,0,0,1,2.5,2.05l.38.66a33.88,33.88,0,0,1-5,3.56Z"/><path class="cls-1" d="M52.71,69.24a1.48,1.48,0,0,0,2,.54l12.9-7.44a1.49,1.49,0,0,0-1.49-2.58L53.25,67.2a1.5,1.5,0,0,0-.54,2Z"/><path class="cls-1" d="M27.11,73.43h-7a1,1,0,0,1-1-1V64.6a1,1,0,0,1,1-1h7a1,1,0,0,1,1,1v7.83A1,1,0,0,1,27.11,73.43Zm-6-2h5V65.6h-5Zm5.27-8.55h-5.2a1,1,0,0,1-.74-.32,7.34,7.34,0,0,1-1.77-5.1c0-1.5,1.14-3.14,3.49-5,1.23-1,2.12-1.72,2.65-2.2a5.59,5.59,0,0,0,1.09-1.33,2.81,2.81,0,0,0,.36-1.43c0-.55,0-1.86-3.14-1.86a37.55,37.55,0,0,0-6.81.76,1,1,0,0,1-.8-.2,1,1,0,0,1-.38-.72l-.34-4.91a1,1,0,0,1,.62-1,24.56,24.56,0,0,1,9.22-1.78c8.58,0,10.38,4.67,10.38,8.59a21.26,21.26,0,0,1-.34,4.31,7.62,7.62,0,0,1-1.28,3,12.88,12.88,0,0,1-2.72,2.57A15.06,15.06,0,0,0,28,58.59a2.77,2.77,0,0,0-.61,1.78v1.51A1,1,0,0,1,26.38,62.88Zm-4.73-2h3.73v-.51a4.75,4.75,0,0,1,1-3,16.69,16.69,0,0,1,3.06-2.74,10.77,10.77,0,0,0,2.29-2.14,5.64,5.64,0,0,0,.95-2.2A20.25,20.25,0,0,0,33,46.38c0-2.83-.87-6.59-8.38-6.59a22.63,22.63,0,0,0-7.8,1.37l.22,3.06a37.7,37.7,0,0,1,6.07-.59c4.47,0,5.14,2.42,5.14,3.86a4.82,4.82,0,0,1-.62,2.42,7.49,7.49,0,0,1-1.49,1.82c-.55.51-1.48,1.28-2.74,2.28-2.38,1.9-2.74,3-2.74,3.45A5.51,5.51,0,0,0,21.65,60.88Z"/></g></g></svg>