<svg xmlns="http://www.w3.org/2000/svg" viewBox="0 0 70.9 70.9"><defs><style>.cls-1{fill:#f9ad1b;}</style></defs><title>Asset 1</title><g id="Layer_2" data-name="Layer 2"><g id="Layer_1-2" data-name="Layer 1"><path class="cls-1" d="M62.68,70.9H8.22A8.23,8.23,0,0,1,0,62.68V8.22A8.23,8.23,0,0,1,8.22,0H62.68A8.23,8.23,0,0,1,70.9,8.22V62.68A8.23,8.23,0,0,1,62.68,70.9ZM8.22,4A4.22,4.22,0,0,0,4,8.22V62.68A4.23,4.23,0,0,0,8.22,66.9H62.68a4.23,4.23,0,0,0,4.22-4.22V8.22A4.23,4.23,0,0,0,62.68,4Z"/><path class="cls-1" d="M42.71,15.67H28.18V.82H42.71Zm-10.53-4h6.53V4.82H32.18Z"/><path class="cls-1" d="M35.45,62.72A22.55,22.55,0,1,1,58,40.18,22.57,22.57,0,0,1,35.45,62.72Zm0-42.09A19.55,19.55,0,1,0,55,40.18,19.57,19.57,0,0,0,35.45,20.63Z"/><path class="cls-1" d="M31.72,30V43.3a2.8,2.8,0,0,0,2.8,2.8h1.86a2.79,2.79,0,0,0,2.79-2.8V30a3.73,3.73,0,1,0-7.45,0Zm5,0V43.3a.31.31,0,0,1-.31.32H34.52a.31.31,0,0,1-.31-.32V30a1.24,1.24,0,1,1,2.48,0Z"/><path class="cls-1" d="M35.45,48.58a3.73,3.73,0,1,0,3.72,3.73A3.73,3.73,0,0,0,35.45,48.58Zm0,5a1.24,1.24,0,1,1,1.24-1.24A1.24,1.24,0,0,1,35.45,53.55Z"/></g></g></svg>