<svg xmlns="http://www.w3.org/2000/svg" viewBox="0 0 80.91 84.32"><defs><style>.cls-1{fill:#fbad18;}</style></defs><g id="Layer_2" data-name="Layer 2"><g id="Layer_1-2" data-name="Layer 1"><path class="cls-1" d="M77,43.25a2.46,2.46,0,0,1,0-2.18l3.14-6.44A7.31,7.31,0,0,0,77,24.91l-6.32-3.35a2.51,2.51,0,0,1-1.29-1.77l-1.23-7a7.32,7.32,0,0,0-8.27-6l-7.09,1a2.46,2.46,0,0,1-2.08-.67l-5.15-5a7.32,7.32,0,0,0-10.22,0l-5.14,5a2.46,2.46,0,0,1-2.08.67L21,6.73a7.32,7.32,0,0,0-8.27,6l-1.24,7a2.47,2.47,0,0,1-1.28,1.77L3.91,24.91A7.32,7.32,0,0,0,.76,34.63L3.9,41.07a2.46,2.46,0,0,1,0,2.18L.76,49.69a7.32,7.32,0,0,0,3.15,9.72l6.33,3.35a2.47,2.47,0,0,1,1.28,1.77l1.24,7A7.3,7.3,0,0,0,20,77.66,7.51,7.51,0,0,0,21,77.59l7.09-1a2.5,2.5,0,0,1,2.08.67l5.14,5a7.32,7.32,0,0,0,10.22,0l5.15-5a2.49,2.49,0,0,1,2.08-.67l7.09,1a7.32,7.32,0,0,0,8.27-6l1.24-7a2.47,2.47,0,0,1,1.28-1.77L77,59.41a7.31,7.31,0,0,0,3.16-9.72Zm-4.37,2.14,3.14,6.43a2.46,2.46,0,0,1-1.07,3.29l-6.32,3.36a7.31,7.31,0,0,0-3.8,5.22l-1.23,7a2.48,2.48,0,0,1-2.8,2l-7.09-1a7.3,7.3,0,0,0-6.14,2l-5.15,5a2.48,2.48,0,0,1-3.45,0l-5.15-5a7.31,7.31,0,0,0-5.09-2.07,7.41,7.41,0,0,0-1,.07l-7.09,1a2.47,2.47,0,0,1-2.8-2l-1.24-7a7.27,7.27,0,0,0-3.79-5.22L6.19,55.11a2.47,2.47,0,0,1-1.06-3.29l3.14-6.43a7.33,7.33,0,0,0,0-6.46h0L5.13,32.5a2.47,2.47,0,0,1,1.06-3.29l6.33-3.36a7.27,7.27,0,0,0,3.79-5.22l1.24-7a2.47,2.47,0,0,1,2.8-2l7.09,1a7.3,7.3,0,0,0,6.14-2l5.15-5a2.48,2.48,0,0,1,3.45,0l5.15,5a7.3,7.3,0,0,0,6.14,2l7.09-1a2.48,2.48,0,0,1,2.8,2l1.23,7a7.31,7.31,0,0,0,3.8,5.22l6.32,3.36a2.46,2.46,0,0,1,1.07,3.29l-3.14,6.43A7.33,7.33,0,0,0,72.64,45.39Z"/><path class="cls-1" d="M58.22,24.39a2.43,2.43,0,0,0-3.44,0L22.69,56.49a2.43,2.43,0,0,0,3.44,3.44l32.09-32.1A2.43,2.43,0,0,0,58.22,24.39Z"/><path class="cls-1" d="M30.73,38.11a8.92,8.92,0,1,0-8.92-8.92A8.93,8.93,0,0,0,30.73,38.11Zm0-13a4.05,4.05,0,1,1-4.05,4.05A4.06,4.06,0,0,1,30.73,25.14Z"/><path class="cls-1" d="M50.18,46.21a8.92,8.92,0,1,0,8.92,8.92A8.93,8.93,0,0,0,50.18,46.21Zm0,13a4.05,4.05,0,1,1,4-4A4.06,4.06,0,0,1,50.18,59.18Z"/></g></g></svg>