<svg xmlns="http://www.w3.org/2000/svg" viewBox="0 0 50.78 81.89"><defs><style>.cls-1{fill:#fbad18;}</style></defs><g id="Layer_2" data-name="Layer 2"><g id="Layer_1-2" data-name="Layer 1"><g id="UmFNzV.tif"><path class="cls-1" d="M50.78,68.78c-.62,1-1.36,1.23-2.1.77A1.58,1.58,0,0,1,48.05,68q0-10.2,0-20.39c0-7.94,0-15.88,0-23.82a3.81,3.81,0,0,0-1.37-3.08Q37.14,12.29,27.65,3.8c-1.62-1.44-2.9-1.45-4.5,0l-7.86,7a.63.63,0,0,0-.13.18,12.79,12.79,0,0,0,5.55,4l.37-.5a5.32,5.32,0,0,1,5.87-2,5.37,5.37,0,0,1,3.69,4.66,1.39,1.39,0,0,1-1.16,1.71c-.84.11-1.42-.43-1.54-1.43a2.55,2.55,0,0,0-5.1-.07,2.59,2.59,0,0,0,2.44,2.74c1,.13,1.54.69,1.44,1.53a1.44,1.44,0,0,1-1.8,1.15,5.27,5.27,0,0,1-4.79-4.61c0-.22-.17-.55-.34-.61a16.4,16.4,0,0,1-6.73-4.82l-4,3.5c-1.69,1.5-3.36,3-5.08,4.51a3.52,3.52,0,0,0-1.31,2.85q0,26.15,0,52.29c0,2.18,1.07,3.25,3.23,3.25H44.83c2,0,3-.9,3.21-2.7a1.34,1.34,0,0,1,1-1.34,1.29,1.29,0,0,1,1.54.69,1.14,1.14,0,0,0,.16.15v1.28A17.23,17.23,0,0,1,50,79.13a5.88,5.88,0,0,1-3.86,2.76H4.63l-.36-.15A5.45,5.45,0,0,1,0,76.12V23.36A5.54,5.54,0,0,1,1.94,19q3-2.64,6-5.3l3.55-3.16C9.91,7.23,9.41,5.38,9.4,2.83c0-1,.46-1.56,1.28-1.59s1.36.53,1.44,1.48c.05.69.07,1.38.18,2.06a10.43,10.43,0,0,0,1.31,3.84l7.94-7a5.48,5.48,0,0,1,7.66,0C35.46,7.09,41.69,12.67,48,18.19a7.69,7.69,0,0,1,2.82,4.21Z"/><path class="cls-1" d="M25.39,37.23c3.16,0,6.33-.1,9.49,0a6.58,6.58,0,0,1,6.31,6.5c.08,3.75,0,7.51,0,11.26,0,2.27,0,4.53,0,6.8a6.83,6.83,0,0,1-7.15,7.11H16.68A6.79,6.79,0,0,1,9.56,61.8q0-8.84,0-17.66a6.72,6.72,0,0,1,6.49-6.92l.4,0h8.94ZM12.28,53v8.87a4.07,4.07,0,0,0,4.35,4.34H34a4.13,4.13,0,0,0,4.47-4.47v-17c0-3.22-1.56-4.78-4.81-4.78H17.09c-.37,0-.75,0-1.12.05A4,4,0,0,0,12.28,44Z"/></g></g></g></svg>