<svg xmlns="http://www.w3.org/2000/svg" viewBox="0 0 82.99 82.99"><defs><style>.cls-1{fill:#fbad18;}</style></defs><g id="Layer_2" data-name="Layer 2"><g id="Layer_1-2" data-name="Layer 1"><path class="cls-1" d="M83,5.65A5.63,5.63,0,0,0,77.34,0a5.7,5.7,0,0,0-4,1.67c-.45.46-1.28,1.44-1.73,2a1.35,1.35,0,0,0,2.07,1.72c.71-.85,1.29-1.53,1.56-1.8a3,3,0,0,1,2.12-.88h0a2.89,2.89,0,0,1,2.08.86,2.93,2.93,0,0,1,.86,2.09,3,3,0,0,1-.88,2.12,49.54,49.54,0,0,1-4.76,3.63,8.52,8.52,0,0,0-7.35-4.23H47.62a9.89,9.89,0,0,0-7,2.92L1.23,49.43a4.22,4.22,0,0,0,0,6L27.6,81.76a4.22,4.22,0,0,0,6,0L72.91,42.4a9.89,9.89,0,0,0,2.92-7V15.68a8.67,8.67,0,0,0-.17-1.7,52.3,52.3,0,0,0,5.66-4.32A5.7,5.7,0,0,0,83,5.65Zm-9.85,10V35.37A7.21,7.21,0,0,1,71,40.5L31.66,79.85a1.52,1.52,0,0,1-2.16,0L3.14,53.49a1.52,1.52,0,0,1,0-2.16L42.49,12a7.21,7.21,0,0,1,5.13-2.13H67.31a5.84,5.84,0,0,1,5.13,3.06c-1.59,1.05-3.37,2.17-5.26,3.27L67,16a5.64,5.64,0,0,0-8,8,5.63,5.63,0,0,0,8,0,5.65,5.65,0,0,0,1.47-5.43c1.64-.95,3.21-1.93,4.67-2.87ZM61.81,20.59a1.35,1.35,0,0,0,1.2.74,1.3,1.3,0,0,0,.6-.15c.79-.39,1.58-.81,2.35-1.23A2.95,2.95,0,1,1,63,17a3,3,0,0,1,1.71.55c-.76.41-1.54.82-2.32,1.21A1.34,1.34,0,0,0,61.81,20.59Z"/><path class="cls-1" d="M40.06,27.39a1.34,1.34,0,0,0-1.34,1.34V57.12a1.35,1.35,0,1,0,2.69,0V28.73A1.35,1.35,0,0,0,40.06,27.39Z"/><path class="cls-1" d="M25.93,38.93a5.65,5.65,0,0,0,8,8,5.65,5.65,0,1,0-8-8ZM32,45A3,3,0,1,1,29.92,40a2.92,2.92,0,0,1,2.09.87h0A2.95,2.95,0,0,1,32,45Z"/><path class="cls-1" d="M46.21,38.93a5.65,5.65,0,1,0,8,0A5.66,5.66,0,0,0,46.21,38.93ZM52.29,45A3,3,0,1,1,50.2,40,3,3,0,0,1,52.29,45Z"/></g></g></svg>