<svg xmlns="http://www.w3.org/2000/svg" viewBox="0 0 144.89 69.97"><defs><style>.cls-1{fill:#fbad18;}</style></defs><g id="Layer_2" data-name="Layer 2"><g id="Layer_1-2" data-name="Layer 1"><g id="EzM2QG.tif"><path class="cls-1" d="M144.89,58.15c-1,2.11-1.6,4.45-2.93,6.3-3,4.14-7.4,5.52-12.39,5.52q-39.45,0-78.92,0H17.55c-6.69,0-12-2.54-15.43-8.41-3-5.07-2.81-11,.49-14.95a10.3,10.3,0,0,1,3.17-2.5c4-2.06,8-4,12-5.93,1.46-.72,2.69-.43,3.29.75s.1,2.32-1.39,3.06c-4.05,2-8.13,4-12.15,6a22.63,22.63,0,0,0-2.88,2.16c4,1.6,7.58,2.69,11.45,2.69q29.28,0,58.56,0a11.88,11.88,0,0,0,7.18-2.59,36.73,36.73,0,0,1,16.54-7.18,50.46,50.46,0,0,1,7.17-.55q9.33-.12,18.67,0c4.52.06,9.16-.69,13.56,1.72,0-3,.11-5.76-.07-8.51A5.62,5.62,0,0,0,136.43,33c-1.13-1.5-2.42-2.87-3.75-4.41l-5.59,4.29c-3.38,2.59-5.75,2.17-8-1.43-.84-1.31-1.69-2.61-2.48-3.94a4.42,4.42,0,0,1,1.85-6.57c1.33-.72,2.69-1.35,4-2l4-2c-.73-3.38-1.43-6.72-2.21-10a1.24,1.24,0,0,0-1-.68c-3.06-.06-6.13,0-9.19-.05-.86,0-1,.42-1,1.14,0,2.63,0,5.27-.11,7.9a8.87,8.87,0,0,1-5.55,8A8.92,8.92,0,0,1,97.8,22c-2.16-1.67-4.17-3.52-6.21-5.34a2.15,2.15,0,0,1-.36-3.13,2.09,2.09,0,0,1,3.14-.07C96.17,15,98,16.5,99.72,18.05s3.75,2.18,6,1.14a5.14,5.14,0,0,0,3-5.27c0-2.26,0-4.52,0-6.77,0-3.46,1.89-5.37,5.31-5.4s7.07,0,10.61,0a3.21,3.21,0,0,1,3.55,2.91c.74,3.39,1.47,6.79,2.2,10.15a8.86,8.86,0,0,1,7.17,6.62,4.47,4.47,0,0,1-1.5,4.52c.95,1.08,1.85,2.1,2.76,3.11a11.56,11.56,0,0,1,3.33,8.68c-.17,3.1,0,6.21.06,9.31a3.39,3.39,0,0,0,.18,1.24c.8,2,1.66,3.94,2.5,5.91ZM103,65.52h6.54c0-1.75,0-3.39,0-5s.85-2.69,2.23-2.65,2,.93,2,2.66,0,3.34,0,5h6.59V46.89h-6.59c0,1.23,0,2.4,0,3.56,0,1.58-.75,2.48-2,2.51s-2.17-1-2.2-2.56c0-1.16,0-2.32,0-3.5H103ZM124.9,46.87V65.51h6.35V46.87ZM98.63,65.61V47.16c-2.13.67-4.1,1.26-6,1.93a1.26,1.26,0,0,0-.55,1q0,7.34,0,14.68c0,.29.38.84.6.84C94.63,65.64,96.59,65.61,98.63,65.61Zm-11,0v-14c-2.13,1.37-4.11,2.63-6.06,3.92a1,1,0,0,0-.38.67c0,3.13,0,6.26,0,9.45Zm43.69-46.41L120,24.92l3.4,5.36,10.09-7.75ZM76.84,65.49V57.18H70.37v8.45H76A6,6,0,0,0,76.84,65.49Zm58.93-1.2a9.26,9.26,0,0,0,4.79-9A9.55,9.55,0,0,0,135.77,48ZM22.31,65.57V57.29H15.85v8.28Zm10.87,0V57.28H26.71v8.29Zm10.89,0V57.28H37.7v8.27Zm4.48-8.28v8.26H55V57.27Zm17.33,8.3V57.25H59.5v8.32Zm-54.4-1.16c0-2.43,0-4.73,0-7a1.05,1.05,0,0,0-.58-.8C8.78,56,6.66,55.42,4.54,54.84A11.08,11.08,0,0,0,11.48,64.41Z"/><path class="cls-1" d="M77.83,0c3.94,1.62,6.56,4.94,9.69,7.58a1.85,1.85,0,0,1,0,2.79,2,2,0,0,1-2.92.14c-2.06-1.72-4.07-3.5-6.1-5.26C77,4,76.81,4.07,75.82,5.7c-1.31,2.16-2.63,4.33-4,6.62l4.45,3.26c2.09,1.52,4.19,3,6.28,4.58,1.53,1.12,1.86,2.28,1,3.42s-2.06,1.09-3.49.05L72.28,18c-.36-.26-.74-.5-1.43-1,.8,2.74,1.5,5.12,2.2,7.49.25.85.53,1.7.78,2.56.49,1.67.2,2.83-.87,3.52-1.23.78-2.32.6-3.67-.67-2-1.9-4-3.82-6-5.73-.36-.34-.75-.66-1.42-1.25.4,3.34.76,6.3,1.13,9.26,0,.42.12.84.15,1.26A2.51,2.51,0,0,1,61.72,36a2.43,2.43,0,0,1-3-.43c-2.62-2.51-5.21-5-7.82-7.56-.19-.19-.4-.38-.83-.78-.29,1.75-.56,3.28-.81,4.81-.32,2-.65,4.09-1,6.13a2.7,2.7,0,0,1-5.19,1c-1.37-2.18-2.79-4.34-4.25-6.59L30.2,36.85l-1.13.57c-1.67.82-2.93.59-3.55-.64s-.05-2.37,1.63-3.19c2.8-1.35,5.6-2.69,8.36-4.11a2.46,2.46,0,0,0,1.05-1.39,2.2,2.2,0,0,1,3.28-1.52,1.78,1.78,0,0,0,1.33.13c1.43-.6,2.83-1.29,4.19-2a1.78,1.78,0,0,0,.77-1c.65-2.53,2.06-3.19,4.36-2a1.5,1.5,0,0,0,1.14,0c1.54-.69,3.09-1.4,4.56-2.22a2,2,0,0,0,.73-1.3,2.57,2.57,0,0,1,3.93-1.93,1.4,1.4,0,0,0,1.85-.06c.52-.4,1.08-.76,1.63-1.11a1.67,1.67,0,0,0,.89-2.08c-.33-1.27.67-2.37,2-2.81A3.21,3.21,0,0,0,68.79,9a51.58,51.58,0,0,0,2.93-4.82A7.58,7.58,0,0,1,76.42,0ZM57.55,23.5,54.62,25l3.58,3.84Zm10.19-1,.2-.18L66.8,18.6,65,19.87Zm-22.49,7-2.5,1.25,1.91,2.81Z"/></g></g></g></svg>