<svg xmlns="http://www.w3.org/2000/svg" viewBox="0 0 153.79 166.42"><defs><style>.cls-1{fill:#fbad18;}</style></defs><g id="Layer_2" data-name="Layer 2"><g id="Layer_1-2" data-name="Layer 1"><g id="WDhS6p.tif"><path class="cls-1" d="M148.25,166.42c0-2.76.05-5.52,0-8.28a10.93,10.93,0,0,0-11-10.92h-2.73c.19-3.57-.09-6.93-2.52-9.57a48.86,48.86,0,0,0-4.53-3.82c-1.86,9.44-9.34,14-14.77,20.16-7.67-5.83-12.83-12.54-15.06-19.63a8.77,8.77,0,0,0-5.72,5c-.93,2.35-1.22,5-1.87,7.81-.5,0-1.44,0-2.39,0A10.77,10.77,0,0,0,77,157c-.28,3.11-.19,6.26-.27,9.39h-5.2c.1-4-.33-8.07.41-11.94,1.21-6.35,5.33-10.49,11.65-12.21a1.86,1.86,0,0,0,1.55-1.52,16,16,0,0,1,10.46-11.51,1.84,1.84,0,0,0,1.45-1.79,23,23,0,0,1,3.47-10.2c.4-.63.87-1.22,1.36-1.9l3.94,3a62.57,62.57,0,0,0-2.78,7.88A15.43,15.43,0,0,0,106.67,140c1.79,2.07,4,3.8,6.12,5.81,3.88-4.42,8.83-8.41,9.27-15.3.25-4.07-.68-7.6-3.66-11.88l4.31-3.25a21.63,21.63,0,0,1,4.72,11.39,2.8,2.8,0,0,0,2.12,2.71,15.82,15.82,0,0,1,9.91,11.23,1.79,1.79,0,0,0,1.51,1.54,16.2,16.2,0,0,1,12.81,16.22c0,2.66,0,5.31,0,8Z"/><path class="cls-1" d="M5.57,166.42c-.21-10.06,5.29-16.89,17.42-21.53a15.14,15.14,0,0,1,2.29-10l4.55,2.93c-2.59,5.92-1.73,9.61,3.08,13.62,5.27-2.59,6.87-7.89,3.94-13.59l4.59-3a14.8,14.8,0,0,1,2.26,9.95c10.55,3.35,16.91,10.05,17.12,21.6H55.3c.68-7-5.92-15.27-12.88-16-.41,0-1,.43-1.31.8-2.57,2.75-5.11,5.53-7.82,8.48l-9-9.37c-7.79,1.52-13.53,8.43-13.21,16.08Z"/><path class="cls-1" d="M131.68,166.42a28.81,28.81,0,0,0-.43-5.6c-.84-3.13-3.17-4.65-7.59-5.51v-5.24c6.65-.37,12.94,5.21,13.52,12,.12,1.44,0,2.91,0,4.37Z"/><path class="cls-1" d="M87.8,166.42a43.86,43.86,0,0,1,.71-6.72,13.05,13.05,0,0,1,12.95-9.62v5.14a1.93,1.93,0,0,1-.38.19c-5.51,1.09-7.73,3.78-7.73,9.39,0,.54,0,1.08,0,1.62Z"/><path class="cls-1" d="M71.4,136.74V135c0-10.4,0-20.8,0-31.2a9.78,9.78,0,0,1,3.12-7.53C78.81,92.1,83,87.79,87.28,83.56a2,2,0,0,0,.65-2.12,96.39,96.39,0,0,1-2.48-21.08,78.72,78.72,0,0,1,18.29-49.75c2.87-3.52,5.82-7,8.85-10.61,2.68,3.21,5.23,6.33,7.85,9.4a79.29,79.29,0,0,1,18.61,41,77.06,77.06,0,0,1-1.4,28.71c-.6,2.55-.2,4.25,1.78,6.07,4.15,3.8,8,7.92,12,11.89a7.37,7.37,0,0,1,2.31,5.37c0,11.38,0,22.75,0,34.13a3.34,3.34,0,0,1-.15.56c-.48-.47-.89-.84-1.28-1.24Q140.67,124.21,129,112.52a3.28,3.28,0,0,0-2.55-1.06c-9.26,0-18.52,0-27.78.07a4,4,0,0,0-2.5,1c-7.75,7.65-15.44,15.37-23.12,23.08a9.51,9.51,0,0,0-1,1.46Zm49.52-47.22c2.59,0,5,0,7.45,0,1.09,0,1.6-.23,1.82-1.43.81-4.41,1.85-8.78,2.64-13.2a73.48,73.48,0,0,0-3.21-38.86c-.3-.82-.52-1.5-1.72-1.5-10.29.06-20.58,0-30.87.08a2,2,0,0,0-1.5,1,71.76,71.76,0,0,0-4.24,33.2c.73,6.32,2.25,12.56,3.3,18.85.25,1.45.76,2,2.28,1.9,2.46-.14,4.93,0,7.37,0V95H96.12c.75,3.75,1.46,7.32,2.17,10.85h11.59V89.66h5.52v16.22h11.49c.72-3.63,1.42-7.16,2.17-10.92h-8.14ZM77,123.78a3.08,3.08,0,0,0,.56-.28c5.09-5.09,10.2-10.17,15.25-15.29a2,2,0,0,0,.36-1.56c-.69-3.67-1.46-7.32-2.22-11-.44-2.12-.9-4.24-1.41-6.69C85.61,92.87,82.06,96.5,78.42,100a4.91,4.91,0,0,0-1.57,3.89c.05,6.06,0,12.13,0,18.19C76.87,122.64,76.92,123.16,77,123.78ZM112.59,8.59C107,14.88,102.05,21.36,98.42,29h28.33C123.11,21.35,118.15,14.86,112.59,8.59Zm23.34,80.64c-1.28,6.22-2.51,12.14-3.66,18.08a2.11,2.11,0,0,0,.71,1.46q7.08,7.16,14.23,14.25a11,11,0,0,0,1.06.83c0-7.19,0-14.11,0-21a3.2,3.2,0,0,0-.82-2C143.72,97,140,93.26,135.93,89.23Z"/><path class="cls-1" d="M.09,151c0-.8-.07-1.21-.07-1.62,0-7.15,0-14.3,0-21.45a7.92,7.92,0,0,1,2.53-6.08c3.28-3.15,6.43-6.44,9.69-9.61a2.22,2.22,0,0,0,.65-2.43c-4.52-19.21-1.86-37.34,8.76-54,3.21-5,7.28-9.53,11.18-14.57,2.82,3.29,5.55,6.13,7.9,9.25,13.17,17.48,17.19,37,12.47,58.29a3.44,3.44,0,0,0,1,3.8c3.12,2.93,6.06,6,9.12,9a7.2,7.2,0,0,1,2.48,5.12c.06,8,0,15.89,0,24.21-.6-.56-1-.92-1.41-1.31-5.94-5.94-11.85-11.89-17.84-17.78a4,4,0,0,0-2.5-1c-7.42-.08-14.83,0-22.25-.07a3.21,3.21,0,0,0-2.55,1C13,138.06,6.69,144.36.09,151Zm41.2-42.2h6.35c.11-.29.21-.48.26-.68a63.24,63.24,0,0,0-2.06-36.88,1.94,1.94,0,0,0-1.54-.91c-7.58-.06-15.16,0-22.74-.06a1.45,1.45,0,0,0-1.65,1.12,65,65,0,0,0-2.05,36.3c.2.87.57,1.15,1.42,1.13,1.76,0,3.53,0,5.34,0v5.49H19.24c.7,3.53,1.34,6.86,2,10.18a1.19,1.19,0,0,0,.86.71c2.64.06,5.28,0,8.12,0V108.91h5.48V125.1h8.77c.71-3.6,1.41-7.13,2.16-10.92H41.29ZM33,49.88A65.58,65.58,0,0,0,22.66,64.69H43A58.7,58.7,0,0,0,33,49.88ZM60,137.57l.38-.17c0-3.39,0-6.77,0-10.16A1.84,1.84,0,0,0,60,126c-2.77-2.69-5.58-5.34-8.42-8-.57,2.77-1.18,5.66-1.72,8.55a1.54,1.54,0,0,0,.42,1.13C53.49,131,56.77,134.28,60,137.57ZM14.26,117.44a39.85,39.85,0,0,1-4,4.07c-3.93,2.92-5.55,6.64-4.77,11.5a33.48,33.48,0,0,1,0,4.86c3.62-3.63,6.87-6.87,10.08-10.17a1.86,1.86,0,0,0,.38-1.42C15.48,123.46,14.89,120.66,14.26,117.44Z"/><path class="cls-1" d="M68.75,12.72h5.31V26.26H68.75Z"/><path class="cls-1" d="M24.84,18.22h5.29V31.75H24.84Z"/><path class="cls-1" d="M150.94,18h-5.28V4.49h5.28Z"/><path class="cls-1" d="M46.82,1.69H52V12.5H46.82Z"/><path class="cls-1" d="M.16,34.68H5.39v8H.16Z"/><path class="cls-1" d="M57.51,42.77H52.25V34.7h5.26Z"/><path class="cls-1" d="M88,4.45h5.28V12.5H88Z"/><path class="cls-1" d="M63.2,70.19v-8h5.31v8Z"/><path class="cls-1" d="M129.06,62.16a16.46,16.46,0,1,1-16.49-16.6A16.59,16.59,0,0,1,129.06,62.16Zm-5.51,0a11,11,0,1,0-11,10.93A11,11,0,0,0,123.55,62.13Z"/><path class="cls-1" d="M32.94,78.58A10.95,10.95,0,1,1,22,89.49,10.93,10.93,0,0,1,32.94,78.58ZM38.42,89.5a5.43,5.43,0,0,0-5.5-5.44A5.46,5.46,0,1,0,33,95,5.44,5.44,0,0,0,38.42,89.5Z"/></g></g></g></svg>