<svg xmlns="http://www.w3.org/2000/svg" viewBox="0 0 149.06 135.69"><defs><style>.cls-1{fill:#fbad18;}</style></defs><g id="Layer_2" data-name="Layer 2"><g id="Layer_1-2" data-name="Layer 1"><g id="KX1MiM.tif"><path class="cls-1" d="M0,106.67Q20.6,70.31,41.21,34c4.08-7.18,8.18-14.35,12.43-21.43,9.8-16.3,31.52-16.92,41.21-.63q26.1,43.85,51.07,88.35a23.51,23.51,0,0,1-20.46,35.21c-34.07.37-68.14.2-102.21,0-10.11-.05-18.4-6.41-21.93-15.82C.93,118.63.44,117.62,0,116.6Zm74,24.65c16.55,0,33.1.07,49.65,0,17-.1,26.07-15.75,17.61-30.54Q117.06,58.4,92.54,16.18C83.52.65,65.42.73,56.4,16.29Q32,58.31,7.89,100.45c-8.77,15.29.33,30.83,18,30.87Q49.95,131.37,74,131.32Z"/><path class="cls-1" d="M74.51,119.58q24.33,0,48.66,0c8.84,0,12.24-5.79,7.79-13.52q-24.2-42.12-48.58-84.13c-4.41-7.61-11.25-7.65-15.7-.1C60.05,33.06,53.6,44.41,47.08,55.71c-.58,1-.95,2.25-1.79,2.95a20.58,20.58,0,0,1-3.85,2.08c0-1.35-.43-3,.15-4,7.42-13.08,14.75-26.21,22.6-39C69.35,9.28,80.45,10,85.67,19c11.92,20.4,23.67,40.9,35.49,61.35,4.55,7.87,9.15,15.71,13.64,23.6,5.92,10.41.56,20-11.49,20.09q-48.9.24-97.81,0c-12-.06-17.2-9.77-11.21-20.24,6.9-12,13.83-24.06,20.9-36,.76-1.28,2.58-1.92,3.91-2.86-.09,1.71.39,3.73-.36,5.07-6.62,11.81-13.47,23.5-20.22,35.25-5.1,8.86-1.9,14.37,8.33,14.38Z"/><path class="cls-1" d="M83.94,60c0,6.27.12,12.54,0,18.8C83.75,85.28,80,89.06,74.28,89c-5.5-.1-9.11-3.84-9.17-10.09q-.19-18.81,0-37.61C65.17,34.82,69,31,74.72,31.08c5.46.1,9,3.9,9.19,10.12S83.94,53.74,83.94,60Zm-4.31-.11c0-6,0-11.9,0-17.84,0-3.52-1-6.5-5-6.57s-5.23,2.79-5.22,6.36q0,18.09,0,36.18c0,3.52,1.08,6.56,5,6.6,4.28,0,5.26-3.21,5.24-6.89C79.6,71.78,79.63,65.83,79.63,59.89Z"/><path class="cls-1" d="M74.47,93.62A9.3,9.3,0,0,1,83.9,103a9.4,9.4,0,0,1-18.8.06A9.28,9.28,0,0,1,74.47,93.62Zm-1,15,2.42-.07c1.19-1.94,3.55-4.1,3.24-5.76-.34-1.88-3.09-3.31-4.8-4.93-1.59,1.73-4.25,3.33-4.47,5.22C69.67,104.79,72.17,106.79,73.48,108.65Z"/></g></g></g></svg>